<svg width="31" height="30" viewBox="0 0 31 30" fill="none" xmlns="http://www.w3.org/2000/svg">
<g clip-path="url(#clip0_436_941)">
<path d="M15.5 11.25L13.1855 8.93555C13.4727 8.19727 13.625 7.40039 13.625 6.5625C13.625 2.93555 10.6895 0 7.0625 0C3.43555 0 0.5 2.93555 0.5 6.5625C0.5 10.1895 3.43555 13.125 7.0625 13.125C7.90039 13.125 8.69727 12.9668 9.43555 12.6855L11.75 15L9.43555 17.3145C8.69727 17.0273 7.90039 16.875 7.0625 16.875C3.43555 16.875 0.5 19.8105 0.5 23.4375C0.5 27.0645 3.43555 30 7.0625 30C10.6895 30 13.625 27.0645 13.625 23.4375C13.625 22.5996 13.4668 21.8027 13.1855 21.0645L29.75 4.5C30.166 4.08398 30.166 3.41602 29.75 3C28.0918 1.3418 25.4082 1.3418 23.75 3L15.5 11.25ZM16.8242 20.0742L23.75 27C25.4082 28.6582 28.0918 28.6582 29.75 27C30.166 26.584 30.166 25.916 29.75 25.5L20.5742 16.3242L16.8242 20.0742ZM4.25 6.5625C4.25 6.19316 4.32275 5.82743 4.46409 5.4862C4.60543 5.14497 4.8126 4.83493 5.07376 4.57376C5.33493 4.3126 5.64497 4.10543 5.9862 3.96409C6.32743 3.82275 6.69316 3.75 7.0625 3.75C7.43184 3.75 7.79757 3.82275 8.1388 3.96409C8.48003 4.10543 8.79007 4.3126 9.05124 4.57376C9.3124 4.83493 9.51957 5.14497 9.66091 5.4862C9.80225 5.82743 9.875 6.19316 9.875 6.5625C9.875 6.93184 9.80225 7.29757 9.66091 7.6388C9.51957 7.98003 9.3124 8.29007 9.05124 8.55124C8.79007 8.8124 8.48003 9.01957 8.1388 9.16091C7.79757 9.30225 7.43184 9.375 7.0625 9.375C6.69316 9.375 6.32743 9.30225 5.9862 9.16091C5.64497 9.01957 5.33493 8.8124 5.07376 8.55124C4.8126 8.29007 4.60543 7.98003 4.46409 7.6388C4.32275 7.29757 4.25 6.93184 4.25 6.5625ZM7.0625 20.625C7.43184 20.625 7.79757 20.6977 8.1388 20.8391C8.48003 20.9804 8.79007 21.1876 9.05124 21.4488C9.3124 21.7099 9.51957 22.02 9.66091 22.3612C9.80225 22.7024 9.875 23.0682 9.875 23.4375C9.875 23.8068 9.80225 24.1726 9.66091 24.5138C9.51957 24.855 9.3124 25.1651 9.05124 25.4262C8.79007 25.6874 8.48003 25.8946 8.1388 26.0359C7.79757 26.1773 7.43184 26.25 7.0625 26.25C6.69316 26.25 6.32743 26.1773 5.9862 26.0359C5.64497 25.8946 5.33493 25.6874 5.07376 25.4262C4.8126 25.1651 4.60543 24.855 4.46409 24.5138C4.32275 24.1726 4.25 23.8068 4.25 23.4375C4.25 23.0682 4.32275 22.7024 4.46409 22.3612C4.60543 22.02 4.8126 21.7099 5.07376 21.4488C5.33493 21.1876 5.64497 20.9804 5.9862 20.8391C6.32743 20.6977 6.69316 20.625 7.0625 20.625Z" fill="#E879F9"/>
</g>
<defs>
<clipPath id="clip0_436_941">
<path d="M0.5 0H30.5V30H0.5V0Z" fill="white"/>
</clipPath>
</defs>
</svg>
